<?xml version="1.0" encoding="UTF-8"?>
<!DOCTYPE svg PUBLIC "-//W3C//DTD SVG 1.1//EN" "http://www.w3.org/Graphics/SVG/1.1/DTD/svg11.dtd">
<!-- Creator: CorelDRAW 2020 (64 Bit) -->
<svg xmlns="http://www.w3.org/2000/svg" xml:space="preserve" width="66.146mm" height="64.4179mm" version="1.1" style="shape-rendering:geometricPrecision; text-rendering:geometricPrecision; image-rendering:optimizeQuality; fill-rule:evenodd; clip-rule:evenodd"
viewBox="0 0 27300.88 26587.63"
 xmlns:xlink="http://www.w3.org/1999/xlink"
 xmlns:xodm="http://www.corel.com/coreldraw/odm/2003">
 <defs>
  <style type="text/css">
   <![CDATA[
    .fil2 {fill:#373435}
    .fil3 {fill:#ED3237}
    .fil0 {fill:#373435;fill-rule:nonzero}
    .fil1 {fill:#ED3237;fill-rule:nonzero}
   ]]>
  </style>
 </defs>
 <g id="Camada_x0020_1">
  <metadata id="CorelCorpID_0Corel-Layer"/>
  <g id="_2256618394032">
   <g>
    <path class="fil0" d="M3604.72 16706.34c256.89,89.69 475.68,213.38 656.46,369.69 180.78,157.67 326.23,334.36 437.67,534.16 111.44,198.4 190.31,411.83 235.14,638.79 44.86,227.01 59.81,458.06 42.14,690.47 -17.67,233.77 -62.53,464.87 -135.91,691.83 -72.02,227.01 -171.24,438.99 -296.3,636.11 -125.02,198.44 -273.19,373.77 -445.8,528.72 -172.61,153.58 -365.64,275.91 -581.75,365.6 -331.63,135.91 -678.21,229.69 -1038.4,282.72 -361.52,53 -720.35,61.13 -1075.1,24.43l10.85 1958.6c0,55.72 -33.97,105.99 -103.27,150.86 -69.34,46.23 -156.34,81.56 -262.34,106.03 -106.03,25.8 -220.19,39.42 -342.53,43.46 -122.34,4.09 -235.14,-6.77 -341.17,-31.24 -104.63,-25.84 -191.63,-65.21 -262.29,-120.97 -70.7,-55.72 -104.67,-130.47 -101.95,-222.88 0,-112.84 1.36,-281.36 2.72,-508.33 1.36,-227.01 2.72,-490.7 4.09,-792.41 1.36,-301.75 1.36,-627.94 1.36,-979.96 0,-350.66 1.32,-708.17 2.72,-1071.05 1.32,-361.56 2.68,-718.99 4.04,-1068.33 1.36,-350.66 2.72,-674.12 5.45,-967.74 2.72,-266.38 12.22,-496.07 28.56,-689.06 14.94,-194.36 46.19,-354.75 91.05,-483.89 44.86,-129.1 108.71,-226.96 193,-294.94 84.28,-67.94 193,-110.08 328.91,-125.02 254.2,-29.92 512.41,-46.23 774.75,-51.67 260.97,-5.41 517.86,4.09 769.3,29.92 252.8,24.48 497.47,66.57 732.61,125.02 236.46,58.44 458.01,135.96 665.99,231.09zm-2166.54 3353.07c368.33,36.69 690.47,28.56 965.02,-24.48 275.91,-53 501.52,-135.91 679.57,-250.08 178.05,-114.16 308.56,-254.16 390.08,-417.28 82.92,-163.07 118.25,-337.08 107.39,-523.27 -10.85,-180.78 -48.95,-339.81 -116.89,-477.08 -67.94,-138.64 -156.3,-258.25 -263.7,-358.83 -107.35,-100.58 -231.05,-184.82 -369.69,-251.44 -140,-66.62 -286.77,-115.52 -444.43,-149.49 -156.3,-32.61 -316.69,-50.31 -481.17,-53 -164.43,-2.72 -326.19,6.77 -486.58,27.16l20.39 2477.78zm7191.4 3097.59c-42.14,21.71 -84.28,40.74 -127.74,59.76 -42.14,19.03 -85.64,36.73 -130.51,55.76 -440.35,178.05 -829.06,270.47 -1163.42,278.64 -334.4,8.13 -618.44,-73.43 -853.58,-243.31 -235.14,-169.88 -420,-432.22 -553.19,-788.33 -134.55,-356.11 -220.19,-810.08 -256.89,-1361.91 -27.2,-381.95 -42.14,-801.91 -44.86,-1258.6 -2.68,-455.33 6.81,-936.46 28.56,-1440.74 2.72,-77.43 38.05,-141.32 106.03,-191.63 66.57,-50.27 149.49,-86.96 248.72,-111.44 97.86,-23.11 203.85,-35.33 318.05,-35.33 114.16,0 220.19,13.58 316.65,39.42 96.54,27.16 176.73,65.21 239.26,114.16 62.49,48.95 92.41,110.08 89.69,184.82 -10.9,244.67 -20.39,483.89 -29.92,719.03 -9.49,235.14 -17.67,459.42 -21.71,672.8 -5.45,213.38 -8.17,413.19 -6.81,599.38 1.36,184.86 6.81,352.06 13.58,497.47 16.3,256.89 47.59,477.08 93.77,656.5 46.23,180.74 119.61,319.38 217.47,417.24 97.86,96.5 225.64,148.17 384.67,154.98 157.67,6.77 356.11,-36.73 595.33,-129.15 201.13,-77.47 376.46,-172.61 524.63,-286.77l-19.03 -3336.81c0,-55.72 33.97,-107.35 103.27,-152.22 69.34,-44.86 156.34,-80.19 262.34,-104.63 106.03,-25.84 220.19,-40.82 342.53,-44.86 122.34,-4.09 236.5,6.77 341.17,32.61 104.63,24.48 191.63,65.25 260.93,120.97 67.98,55.72 103.31,130.47 103.31,222.92 -2.72,116.85 -4.09,267.74 -4.09,453.93 0,186.23 -1.36,394.16 -2.72,623.89 -1.36,229.69 -1.36,473 -1.36,729.88 0,258.21 -1.36,516.46 -2.72,774.71 -1.32,259.61 -1.32,511.05 -1.32,754.36 0,244.63 0,468.91 -1.36,672.8 -1.36,205.21 -2.72,381.91 -4.09,530.08 -1.36,148.13 -4.09,255.53 -6.81,318.05 -2.72,51.63 -36.69,95.14 -103.27,131.83 -66.62,36.69 -149.53,65.21 -248.76,85.6 -99.22,20.43 -206.57,32.65 -322.14,35.37 -115.52,4.09 -222.88,0 -323.46,-13.62 -99.22,-13.58 -182.14,-36.69 -248.76,-69.3 -66.57,-32.61 -99.18,-77.47 -99.18,-133.23l-12.26 -235.09zm4583.15 -5001.79c307.16,2.72 585.8,55.72 834.55,157.67 247.35,101.95 464.82,239.22 651.01,411.83 184.86,172.61 341.17,373.77 464.87,602.1 125.06,228.37 218.83,470.31 281.36,728.52 62.53,256.89 93.77,521.95 93.77,793.78 0,271.83 -31.24,536.89 -93.77,792.41 -62.53,256.85 -156.3,498.79 -281.36,727.16 -123.7,228.33 -281.36,428.13 -468.91,599.38 -188.95,171.24 -409.1,307.2 -659.22,407.78 -251.44,100.54 -534.16,150.86 -850.82,150.86 -248.76,0 -478.44,-28.56 -689.15,-87 -209.3,-58.44 -400.93,-138.64 -576.26,-239.22l0 140c0,53.04 -33.97,95.14 -100.58,126.42 -65.25,32.61 -148.17,54.36 -246.03,63.89 -97.86,10.85 -205.21,12.22 -320.74,4.04 -115.52,-8.13 -222.92,-23.07 -320.78,-47.55 -97.86,-23.11 -180.78,-54.36 -248.72,-93.77 -67.98,-38.05 -101.95,-82.92 -101.95,-133.23 -2.72,-63.85 -4.09,-194.36 -5.45,-391.44 -1.36,-198.44 -2.72,-439.03 -4.09,-723.07 -1.36,-284.09 -2.68,-600.74 -4.09,-947.35 -1.32,-347.94 -2.68,-705.41 -4.04,-1072.37 -1.36,-365.64 -2.72,-729.88 -4.09,-1090.08 -1.36,-361.52 -1.36,-695.92 -1.36,-1005.8 0,-309.88 -1.36,-581.71 -2.72,-816.85 -1.36,-233.77 -2.72,-410.47 -5.41,-527.39 -2.72,-92.37 31.24,-167.16 101.9,-222.88 69.34,-55.72 157.67,-96.5 262.34,-120.97 104.67,-25.84 218.83,-36.69 339.81,-32.61 122.29,4.09 236.5,19.03 342.49,44.82 107.39,24.48 194.36,59.85 263.7,104.67 69.34,44.86 103.31,96.5 103.31,152.26l-12.26 1843.03c175.33,-95.18 367.01,-169.92 574.94,-222.92 209.34,-53 437.67,-78.83 687.74,-76.11zm-183.5 4021.79c197.08,10.9 369.73,-19.03 517.86,-91.05 148.13,-72.02 273.19,-169.88 373.77,-294.94 101.95,-125.06 178.05,-269.1 231.05,-432.22 53.04,-163.11 82.92,-330.27 88.37,-501.52 5.45,-171.29 -14.98,-338.44 -59.81,-504.28 -44.86,-164.48 -115.52,-311.24 -209.3,-441.71 -93.82,-129.15 -213.43,-233.77 -358.83,-312.61 -144.09,-77.47 -313.97,-116.93 -507.01,-116.93 -183.46,0 -345.21,32.65 -483.85,99.22 -140,66.62 -258.25,153.62 -354.75,262.34 -96.5,110.12 -172.61,235.14 -228.33,376.5 -55.76,142.72 -91.05,290.86 -104.67,444.48l0 286.77c10.85,150.86 42.14,298.99 93.77,441.71 51.67,144.09 123.7,271.87 214.75,384.67 92.45,112.8 202.53,205.21 333,275.91 130.51,72.02 281.36,112.8 453.97,123.66zm4494.83 1178.45c0,55.72 -34.01,107.35 -103.31,152.22 -69.3,44.82 -156.3,80.19 -260.97,104.67 -104.63,25.8 -218.83,40.74 -342.49,44.82 -123.7,4.09 -237.86,-6.77 -342.53,-32.61 -104.63,-24.48 -191.63,-65.25 -260.93,-120.97 -67.98,-55.72 -103.31,-130.51 -103.31,-222.92l24.43 -6634.12c0,-50.31 32.65,-93.82 99.22,-129.15 66.62,-36.69 149.53,-65.21 248.76,-85.6 99.22,-21.75 206.57,-34.01 322.1,-38.05 115.57,-4.09 224.28,0 323.5,13.58 99.22,13.58 183.5,36.69 250.08,72.02 67.98,34.01 101.95,78.83 101.95,131.87l43.5 6744.24zm1473.35 -5235.56c-183.5,5.41 -335.72,-28.56 -455.33,-101.95 -120.97,-73.38 -213.38,-164.48 -275.91,-275.91 -61.17,-111.44 -93.77,-233.77 -95.14,-366.96 -1.36,-133.19 27.16,-255.53 85.64,-369.69 58.4,-114.2 146.77,-210.7 265.02,-286.81 118.25,-77.47 266.42,-115.52 444.43,-115.52 161.75,0 297.67,36.69 409.15,108.76 111.44,73.34 197.04,165.8 256.89,277.24 59.76,111.48 92.41,231.05 96.46,360.2 4.09,129.1 -20.35,250.08 -72.02,362.92 -51.63,112.8 -131.83,206.57 -240.58,284.05 -108.71,77.47 -248.72,118.25 -418.6,123.7zm649.69 5235.56c0,55.72 -35.33,107.35 -106.03,152.22 -70.66,44.82 -157.67,80.19 -262.34,104.67 -105.99,25.8 -218.79,40.74 -341.13,44.82 -122.34,4.09 -235.14,-6.77 -339.81,-32.61 -106.03,-24.48 -193,-65.25 -263.66,-120.97 -70.7,-55.72 -103.31,-130.51 -100.58,-222.92l55.72 -4694.59c0,-50.27 32.61,-95.14 100.58,-131.83 67.94,-36.69 152.22,-65.25 251.44,-85.64 99.22,-20.39 206.57,-31.24 322.14,-35.33 115.52,-4.09 222.88,0 322.1,13.58 100.58,13.62 183.5,36.69 250.08,72.06 65.25,33.97 99.22,77.43 99.22,130.47l12.26 4806.07z"/>
    <path class="fil1" d="M20686.61 13494.88c-173.56,173.6 53.41,9973.82 160.22,10053.93 93.48,80.15 2029.47,66.78 2029.47,66.78l-66.74 -2376.66c0,0 453.97,-453.93 560.79,-467.3 106.82,-13.33 1789.17,3044.22 1895.99,3057.59 453.93,66.74 1989.39,-587.49 2016.09,-680.97 26.7,-106.82 -2269.8,-3498.19 -2269.8,-3498.19 0,0 2056.17,-1775.76 2042.84,-1962.69 -13.37,-186.93 -1442.02,-1028.09 -1562.17,-1028.09 -133.52,0 -2777.22,2483.44 -2777.22,2483.44 0,0 160.22,-5634.47 80.15,-5687.92 -93.48,-53.41 -1936.07,-120.15 -2109.62,40.08z"/>
   </g>
   <g>
    <path class="fil2" d="M11676.9 334.56l4815.11 4158.73 4815.11 4158.78c377.82,326.39 540.48,793.86 446.79,1284.27 -93.69,490.45 -417.28,865.05 -888.83,1029.08l-3309.03 1151.25c-1181.33,-931.42 -1165.57,-3694.16 -2795.92,-5616.23 -2020.18,-2381.57 -5574.96,-3992.9 -5307.67,-5391.99 93.69,-490.41 417.24,-865.01 888.79,-1029.08 471.59,-164.06 957.76,-71.2 1335.66,255.2z"/>
    <path class="fil3" d="M10165.29 860.47l4815.11 4158.73 4815.11 4158.73c377.86,326.39 540.48,793.86 446.79,1284.27 -93.69,490.45 -417.28,865.05 -888.83,1029.12l-3309.03 1151.25c-1203.75,-949.13 -3455.18,-2628.02 -3455.18,-2628.02 0,0 1730.15,-2996.47 1635.88,-3215.76 -94.31,-219.25 -2164.76,-633.18 -2309.3,-582.87 -160.6,55.88 -2301.25,4149.37 -2301.25,4149.37 0,0 -1568.98,-4959.77 -2108.84,-6453.67l435.11 -2277.27c93.69,-490.45 417.24,-865.05 888.79,-1029.08 471.59,-164.1 957.8,-71.2 1335.66,255.2zm2918.3 12812.21l-1913.32 665.66 -566.03 -1490.72c0,0 356.07,-736.03 478.94,-796.79 66.86,-33.02 1073.86,831.05 2000.41,1621.85zm-4405.76 1532.78l-1342.59 467.09c-471.55,164.06 -957.76,71.2 -1335.66,-255.2 -377.86,-326.35 -540.48,-793.82 -446.79,-1284.27l914.25 -4785.14c782.47,2141.24 1662.26,4471.3 2210.78,5857.52z"/>
   </g>
   <path class="fil0" d="M318.1 25391.52l80.36 0c173.76,0 289.62,-18.82 347.52,-56.54 57.91,-37.72 86.63,-104.17 86.63,-199.81 0,-102.36 -30.96,-174.67 -92.91,-216.85 -61.54,-41.77 -175.58,-62.86 -341.25,-62.86l-80.36 0 0 536.06zm-18.86 255.94l0 864.77 -293.62 0 0 -1926.16 473.2 0c140.54,0 243.84,7.64 310.25,22.91 66.04,15.27 123.94,40.86 173.31,75.86 60.63,44.45 107.77,105.08 142.35,180.49 34.09,75.9 51.18,159.4 51.18,250.53 0,91.63 -17.09,175.58 -51.18,252.8 -34.59,77.22 -81.72,137.81 -142.35,181.4 -49.36,35 -107.27,60.14 -173.31,74.95 -66.41,14.86 -169.72,22.45 -310.25,22.45l-61.5 0 -118.08 0zm2489.79 -239.76l57 0c165.67,0 275.71,-19.32 330.02,-57.91 54.32,-38.63 81.72,-106.86 81.72,-205.17 0,-105.99 -29.18,-180.49 -87.58,-224.07 -58.36,-43.54 -166.54,-65.09 -324.16,-65.09l-57 0 0 552.24zm-18.86 242.48l0 862.04 -293.62 0 0 -1926.16 436.39 0c127.95,0 227.17,8.54 298.12,25.14 70.5,16.63 130.67,44 180.49,82.63 59.72,46.68 105.54,106.86 138.31,180.49 32.32,73.63 48.5,153.99 48.5,241.99 0,153.99 -37.27,274.8 -111.81,362.34 -74.54,87.13 -184.53,139.63 -329.98,157.13l662.69 876.45 -352.89 0 -641.19 -862.04 -35 0zm3900.94 -96.99c0,-97.45 -17.95,-189.94 -53.41,-277.48 -35.45,-87.54 -86.67,-165.67 -153.13,-233.94 -65.09,-67.77 -140.08,-119.4 -225.4,-155.77 -85.73,-36.4 -175.99,-54.77 -270.26,-54.77 -94.72,0 -184.99,17.95 -270.76,53.86 -85.31,35.91 -161.63,88 -228.08,156.67 -66.45,67.36 -117.63,145.04 -152.67,232.62 -35,87.54 -52.54,180.49 -52.54,278.8 0,97.41 17.54,189.45 52.54,276.12 35.04,86.63 86.22,164.35 152.67,232.58 66.45,68.68 142.31,120.77 227.62,156.67 84.86,35.95 175.54,53.9 271.21,53.9 93.82,0 182.72,-17.95 267.58,-53.9 84.4,-35.91 160.76,-88 228.08,-156.67 66.45,-68.23 117.67,-145.94 153.13,-233.03 35.45,-87.54 53.41,-179.13 53.41,-275.67zm325.98 0c0,136.95 -25.59,266.26 -76.77,387.93 -51.63,122.13 -126.17,230.76 -224.49,326.39 -98.81,95.63 -210.58,168.81 -335.39,219.58 -124.4,50.73 -255.03,76.32 -391.52,76.32 -138.76,0 -270.76,-25.59 -396.93,-76.77 -125.72,-51.63 -236.62,-124.36 -333.12,-219.12 -98.36,-95.63 -172.9,-203.81 -223.62,-325.07 -50.73,-120.77 -76.32,-250.53 -76.32,-389.25 0,-137.85 25.59,-267.62 76.32,-389.29 50.73,-122.13 125.27,-231.22 223.62,-327.75 98.31,-95.63 209.67,-168.36 334.03,-218.21 124.36,-49.82 256.39,-74.95 396.02,-74.95 138.27,0 269.39,25.14 393.75,74.95 123.9,49.86 235.26,122.58 333.16,218.21 98.31,97.45 172.85,207.44 224.49,329.57 51.18,122.58 76.77,251.44 76.77,387.48zm1708.56 -161.67l80.36 0c173.72,0 289.58,-18.82 347.48,-56.54 57.95,-37.72 86.67,-104.17 86.67,-199.81 0,-102.36 -31,-174.67 -92.95,-216.85 -61.5,-41.77 -175.54,-62.86 -341.21,-62.86l-80.36 0 0 536.06zm-18.86 255.94l0 864.77 -293.66 0 0 -1926.16 473.24 0c140.54,0 243.8,7.64 310.25,22.91 66,15.27 123.9,40.86 173.31,75.86 60.59,44.45 107.77,105.08 142.31,180.49 34.13,75.9 51.22,159.4 51.22,250.53 0,91.63 -17.09,175.58 -51.22,252.8 -34.55,77.22 -81.72,137.81 -142.31,181.4 -49.4,35 -107.31,60.14 -173.31,74.95 -66.45,14.86 -169.72,22.45 -310.25,22.45l-61.5 0 -118.08 0zm2436.8 107.77l536.97 0 -197.54 -439.11c-11.23,-27.82 -23.36,-60.18 -35.5,-96.54 -12.13,-36.36 -24.68,-76.77 -36.82,-121.67 -10.32,42.22 -21.54,81.27 -33.68,117.63 -11.64,36.36 -23.77,70.04 -35.91,100.58l-197.54 439.11zm865.63 757l-218.21 -495.7 -763.27 0 -223.58 495.7 -328.66 0 932.54 -2001.57 931.67 2001.57 -330.48 0zm2568.79 -985.99l761.95 0c0,13.04 0.45,31.45 1.32,55.22 2.68,62.41 4.04,104.17 4.04,126.17 0,270.71 -77.68,481.33 -232.58,630.83 -155.35,149.95 -373.98,224.94 -655.96,224.94 -158.04,0 -298.57,-23.32 -422.06,-69.59 -123.45,-46.68 -232.12,-116.72 -324.58,-210.58 -91.17,-92.95 -161.21,-202.03 -209.71,-327.75 -48.95,-125.27 -73.18,-259.53 -73.18,-402.29 0,-145.49 24.68,-279.75 74.09,-402.75 49.86,-122.58 123.04,-230.8 220.44,-324.62 93.86,-92.04 203.85,-162.08 330.02,-210.58 126.17,-48.04 261.3,-72.27 404.98,-72.27 151.31,0 287.35,27.82 406.79,83.04 119.4,55.22 226.3,139.67 320.12,253.67l-228.08 172.44c-65.13,-75.45 -138.31,-131.58 -219.99,-168.36 -81.27,-36.86 -172.44,-55.27 -273.44,-55.27 -208.8,0 -378.97,66.9 -510.97,200.71 -131.99,133.81 -197.99,307.57 -197.99,521.29 0,217.76 66,394.2 197.99,529.33 131.99,135.58 303.07,203.4 513.65,203.4 178.67,0 319.66,-41.77 422.02,-124.81 102.85,-83.54 154.03,-196.67 154.03,-340.8l0 -27.36 -462.93 0 0 -264.03zm2540.52 228.99l537.01 0 -197.58 -439.11c-11.23,-27.82 -23.32,-60.18 -35.45,-96.54 -12.13,-36.36 -24.68,-76.77 -36.82,-121.67 -10.32,42.22 -21.54,81.27 -33.68,117.63 -11.68,36.36 -23.77,70.04 -35.91,100.58l-197.58 439.11zm865.67 757l-218.21 -495.7 -763.27 0 -223.62 495.7 -328.66 0 932.58 -2001.57 931.63 2001.57 -330.44 0zm1548.71 0l0 -2001.57 1223.93 1176.75c33.23,33.23 66.9,68.72 101.45,106.44 34.13,37.68 70.04,80.36 107.77,127.49l0 -1335.29 288.26 0 0 2001.57 -1247.74 -1198.79c-33.23,-32.77 -65.54,-66.86 -96.54,-102.81 -31.41,-35.91 -60.59,-73.63 -88.9,-113.13l0 1339.33 -288.21 0zm3513.46 -282.85l263.57 0c144.54,0 253.21,-9.45 325.48,-28.73 72.72,-19.32 135.63,-52.13 189.03,-97.45 72.72,-62.41 127.54,-139.63 163.9,-232.58 36.36,-92.49 54.77,-200.26 54.77,-322.84 0,-123 -18.41,-230.31 -54.77,-322.8 -36.36,-92.95 -91.17,-170.17 -163.9,-232.58 -54.32,-45.36 -119.45,-78.13 -195.31,-97.45 -75.86,-19.32 -194.85,-28.73 -356.48,-28.73l-113.13 0 -113.17 0 0 1363.15zm-312.48 282.85l0 -1926.16 421.61 0c274.76,0 467.84,13.91 580.06,41.31 111.81,27.82 209.67,74.09 294.12,138.72 111.32,85.31 195.72,194.4 253.21,327.75 57.45,133.36 86.22,285.57 86.22,456.65 0,171.04 -28.77,322.35 -86.22,454.34 -57.49,132.03 -141.9,241.12 -253.21,327.34 -84.45,64.63 -180.08,110.86 -287.84,138.72 -107.27,27.41 -274.76,41.31 -501.93,41.31l-84.4 0 -421.61 0zm3390.88 -757l537.01 0 -197.58 -439.11c-11.23,-27.82 -23.36,-60.18 -35.45,-96.54 -12.13,-36.36 -24.72,-76.77 -36.82,-121.67 -10.36,42.22 -21.54,81.27 -33.68,117.63 -11.68,36.36 -23.81,70.04 -35.91,100.58l-197.58 439.11zm865.63 757l-218.17 -495.7 -763.27 0 -223.62 495.7 -328.66 0 932.58 -2001.57 931.63 2001.57 -330.48 0z"/>
  </g>
 </g>
</svg>
